<?xml version="1.0" encoding="utf-8"?>
<!-- Generator: Adobe Illustrator 17.0.0, SVG Export Plug-In . SVG Version: 6.00 Build 0)  -->
<!DOCTYPE svg PUBLIC "-//W3C//DTD SVG 1.1//EN" "http://www.w3.org/Graphics/SVG/1.1/DTD/svg11.dtd">
<svg version="1.1" id="Capa_1" xmlns="http://www.w3.org/2000/svg" xmlns:xlink="http://www.w3.org/1999/xlink" x="0px" y="0px"
	 width="1200px" height="1200px" viewBox="0 0 1200 1200" enable-background="new 0 0 1200 1200" xml:space="preserve">
<g>
	<path fill="#FFFFFF" d="M460.381,612.123h75.077c11.075,0,20.041-8.963,20.041-20.041s-8.965-20.041-20.041-20.041h-75.077
		c-11.073,0-20.041,8.963-20.041,20.041C440.341,603.16,449.309,612.123,460.381,612.123z"/>
	<path fill="#FFFFFF" d="M1075.865,532.566c-40.659-8.156-162.614-32.763-162.614-32.763
		C702.983,291.379,695.408,291.379,680.453,291.379c-7.965,0-15.614,3.169-21.251,8.806c-5.639,5.635-8.808,13.286-8.808,21.254
		l0.039,175.804l-194.769-0.157c-0.076-0.137-0.056-0.292-0.137-0.434l-47.007-89.828c-10.276-19.609-34.466-27.124-54.115-16.926
		c-19.609,10.271-27.182,34.481-16.928,54.115l27.751,53.014l-167.29-0.137l24.834-30.177c10.548-12.82,8.71-31.763-4.11-42.314
		c-12.857-10.551-31.802-8.671-42.311,4.108l-60.472,73.508l-30.177,12.485C33.643,536.049,0,586.387,0,642.732v132.294
		c0,16.6,13.465,30.062,30.062,30.062h107.247c8.906,58.458,59.065,103.533,119.969,103.533c60.884,0,111.026-45.076,119.93-103.533
		h440.108c8.906,58.458,59.007,103.533,119.89,103.533c60.923,0,111.104-45.076,120.006-103.533h112.727
		c16.597,0,30.062-13.463,30.062-30.062V670.404C1200,598.599,1143.491,546.132,1075.865,532.566z M1132.857,638.661
		c4.382,9.784,7.022,20.469,7.022,31.743v9.688h-71.06v-3.191c0-21.077,17.163-38.241,38.243-38.241H1132.857z M1067.507,591.338
		c15.536,3.103,30.158,8.024,41.941,17.264h-2.39c-18.982,0-36.15,7.808-48.534,20.354H908.494v-68.79
		C908.494,560.163,1027.335,583.316,1067.507,591.338z M825.121,497.379l-114.567-0.081l-0.02-110.359
		C740.577,415.124,782.128,455.242,825.121,497.379z M878.434,557.54v71.413H422.651v-71.766L878.434,557.54z M823.342,744.966
		H422.651v-85.954h455.784v21.842C853.147,694.947,833.479,717.492,823.342,744.966z M108.697,570.045l31.606-13.073l252.285,0.196
		v71.785H149.364v-19.082c0-8.296-6.732-15.031-15.031-15.031H77.108C85.309,584.294,95.759,575.409,108.697,570.045z
		 M60.122,642.732c0-6.164,1.292-12.016,2.662-17.832h56.521v38.145H60.122V642.732z M60.122,693.106h74.212
		c8.299,0,15.031-6.735,15.031-15.031v-19.063h243.224v85.954h-21.428c-17.146-46.497-61.514-79.905-113.883-79.905
		c-52.392,0-96.777,33.408-113.92,79.905H60.122V693.106z M257.277,848.5c-34.013,0-61.688-27.677-61.688-61.668
		c0-33.996,27.673-61.649,61.688-61.649c33.996,0,61.649,27.653,61.649,61.649C318.926,820.825,291.273,848.5,257.277,848.5z
		 M937.206,848.5c-33.974,0-61.609-27.677-61.609-61.668c0-33.996,27.636-61.649,61.609-61.649
		c34.032,0,61.724,27.653,61.724,61.649C998.93,820.825,971.238,848.5,937.206,848.5z M1051.167,744.966
		c-17.166-46.497-61.553-79.905-113.962-79.905c-9.941,0-19.45,1.527-28.709,3.774v-9.823h132.944
		c-1.566,5.735-2.681,11.664-2.681,17.889v18.222c0,8.296,6.733,15.029,15.031,15.029h86.088v34.817h-88.711V744.966z"/>
</g>
</svg>
