<?xml version="1.0" encoding="utf-8"?>
<!-- Generator: Adobe Illustrator 17.0.0, SVG Export Plug-In . SVG Version: 6.00 Build 0)  -->
<!DOCTYPE svg PUBLIC "-//W3C//DTD SVG 1.1//EN" "http://www.w3.org/Graphics/SVG/1.1/DTD/svg11.dtd">
<svg version="1.1" id="Layer_1" xmlns="http://www.w3.org/2000/svg" xmlns:xlink="http://www.w3.org/1999/xlink" x="0px" y="0px"
	 width="1200px" height="1200px" viewBox="0 0 1200 1200" enable-background="new 0 0 1200 1200" xml:space="preserve">
<g>
	<g>
		<path fill="#FFFFFF" d="M275.004,737.774c-13.805,0-25.011,11.206-25.011,24.975c0,13.842,11.206,25.05,25.011,25.05
			c13.807,0,24.994-11.206,24.994-25.05C299.998,748.98,288.811,737.774,275.004,737.774z"/>
	</g>
</g>
<g>
	<g>
		<path fill="#FFFFFF" d="M1154.404,528.267c-43.32-39.697-118.397-40.904-265.355-40.941
			c-11.609-17.578-36.146-49.988-76.759-82.143c-53.542-42.406-146.848-92.962-287.293-92.962
			c-140.424,0-233.861,50.52-287.51,92.889c-40.723,32.154-65.35,64.564-77.015,82.124h-29.37c-1.959-0.495-10.254-0.495-12.195,0
			H74.999c-6.628,0-12.982,2.637-17.67,7.324L7.324,544.545C2.637,549.232,0,555.605,0,562.233v175.541
			c0,6.959,2.911,13.622,8.02,18.385c6.206,5.714,62.218,56.106,116.51,56.106h35.687c19.191,44.387,63.409,75.515,114.79,75.515
			c51.362,0,95.582-31.128,114.79-75.515l420.411-0.073c19.191,44.459,63.428,75.587,114.771,75.587
			c51.416,0,95.617-31.128,114.806-75.587h135.241c13.77,0,24.975-11.133,24.975-24.975
			C1199.998,642.635,1199.998,570.052,1154.404,528.267z M500.003,362.833c8.222-0.403,16.552-0.605,24.994-0.605
			c100.197,0,185.743,27.115,254.297,80.619c19.85,15.49,35.302,31.055,46.838,44.387H500.003V362.833z M270.427,442.829
			c50.886-39.605,111.072-64.745,179.572-75.128v119.531H223.424C234.998,473.903,250.525,458.321,270.427,442.829z M85.363,537.22
			h14.63v25.013H60.35L85.363,537.22z M275.004,837.751c-41.363,0-74.999-33.619-74.999-75.001
			c0-41.307,33.636-74.999,74.999-74.999c41.347,0,75.001,33.692,75.001,74.999C350.005,804.134,316.351,837.751,275.004,837.751z
			 M924.973,837.751c-41.307,0-74.999-33.619-74.999-75.001c0-41.307,33.692-74.999,74.999-74.999
			c41.38,0,74.999,33.692,74.999,74.999C999.971,804.134,966.354,837.751,924.973,837.751z M1049.997,762.238
			c-0.293-68.701-56.251-124.437-125.025-124.437c-68.701,0-124.659,55.735-124.952,124.437H399.994
			c-0.312-68.701-56.251-124.437-124.987-124.437s-124.694,55.735-124.987,124.437h-25.013c-0.073,0-0.129,0-0.202,0h-0.293
			c-24.61,0-57.404-22.266-74.507-35.961V612.222h75.001c13.807,0,24.994-11.187,24.994-24.994V537.22h24.446h698.529
			c0.659,0.073,1.392,0.11,2.088,0.11c133.774,0,209.654,0,242.102,24.903h-42.481c-13.842,0-25.013,11.187-25.013,24.994
			s11.17,24.994,25.013,24.994h67.747c6.738,33.856,7.472,83.001,7.545,150.017H1049.997z"/>
	</g>
</g>
<g>
	<g>
		<path fill="#FFFFFF" d="M924.973,737.774c-13.77,0-24.973,11.206-24.973,24.975c0,13.842,11.203,25.05,24.973,25.05
			c13.842,0,25.05-11.206,25.05-25.05C950.023,748.98,938.817,737.774,924.973,737.774z"/>
	</g>
</g>
<g>
	<g>
		<path fill="#FFFFFF" d="M575.005,587.228h-50.007c-13.807,0-24.994,11.187-24.994,24.994s11.187,25.013,24.994,25.013h50.005
			c13.807,0,24.994-11.206,24.994-25.013S588.812,587.228,575.005,587.228z"/>
	</g>
</g>
</svg>
