<?xml version="1.0" encoding="utf-8"?>
<!-- Generator: Adobe Illustrator 17.0.0, SVG Export Plug-In . SVG Version: 6.00 Build 0)  -->
<!DOCTYPE svg PUBLIC "-//W3C//DTD SVG 1.1//EN" "http://www.w3.org/Graphics/SVG/1.1/DTD/svg11.dtd">
<svg version="1.1" id="Capa_1" xmlns="http://www.w3.org/2000/svg" xmlns:xlink="http://www.w3.org/1999/xlink" x="0px" y="0px"
	 width="1200px" height="1200px" viewBox="0 0 1200 1200" enable-background="new 0 0 1200 1200" xml:space="preserve">
<g>
	<g>
		<path fill="#FFFFFF" d="M823.482,834.435H386.126c-10.607,0-19.216-8.609-19.216-19.216s8.609-19.216,19.216-19.216h437.356
			c10.607,0,19.216,8.609,19.216,19.216S834.089,834.435,823.482,834.435z"/>
		<path fill="#FFFFFF" d="M282.052,938.509c-68.025,0-123.328-55.304-123.328-123.29c0-68.025,55.304-123.328,123.328-123.328
			c67.986,0,123.29,55.304,123.29,123.328C405.342,883.167,350,938.509,282.052,938.509z M282.052,730.323
			c-46.81,0-84.896,38.086-84.896,84.896s38.086,84.858,84.896,84.858s84.858-38.048,84.858-84.858S328.862,730.323,282.052,730.323
			z"/>
		<path fill="#FFFFFF" d="M927.556,938.509c-67.986,0-123.29-55.304-123.29-123.29c0-68.025,55.304-123.328,123.29-123.328
			c68.025,0,123.328,55.304,123.328,123.328C1050.884,883.167,995.542,938.509,927.556,938.509z M927.556,730.323
			c-46.81,0-84.858,38.086-84.858,84.896s38.048,84.858,84.858,84.858s84.896-38.048,84.896-84.858S974.366,730.323,927.556,730.323
			z"/>
	</g>
	<path fill="#FFFFFF" d="M823.636,834.435H386.164c-10.607,0-19.216-8.609-19.216-19.216s8.609-19.216,19.216-19.216h437.471
		c10.607,0,19.216,8.609,19.216,19.216S834.243,834.435,823.636,834.435z"/>
	<path fill="#FFFFFF" d="M1108.109,834.435h-76.557c-10.607,0-19.216-8.609-19.216-19.216s8.609-19.216,19.216-19.216h76.557
		c29.477,0,53.459-23.982,53.459-53.459v-74.212c0-27.364-11.145-54.112-30.592-73.443l-86.203-85.665
		c-1.614-1.614-2.921-3.497-3.92-5.573l-70.676-152.959c-14.258-30.861-45.427-50.769-79.362-50.769H99.308
		c-33.551,0-60.876,27.325-60.876,60.876v381.783c0,29.477,23.943,53.459,53.42,53.459h85.934c10.607,0,19.216,8.609,19.216,19.216
		c0,10.607-8.609,19.216-19.216,19.216H91.852C41.199,834.435,0,793.236,0,742.544V360.799c0-54.766,44.543-99.308,99.308-99.308
		h791.506c48.885,0,93.736,28.67,114.297,73.059l69.216,149.846l83.782,83.244c26.633,26.441,41.929,63.182,41.929,100.692v74.212
		C1200,793.236,1158.762,834.435,1108.109,834.435z"/>
	<path fill="#FFFFFF" d="M826.211,570.254H272.675c-10.607,0-19.216-8.609-19.216-19.216c0-10.607,8.609-19.216,19.216-19.216
		h553.536c10.607,0,19.216,8.609,19.216,19.216C845.427,561.645,836.818,570.254,826.211,570.254z"/>
</g>
</svg>
