<?xml version="1.0" encoding="utf-8"?>
<!-- Generator: Adobe Illustrator 17.0.0, SVG Export Plug-In . SVG Version: 6.00 Build 0)  -->
<!DOCTYPE svg PUBLIC "-//W3C//DTD SVG 1.1//EN" "http://www.w3.org/Graphics/SVG/1.1/DTD/svg11.dtd">
<svg version="1.1" id="Capa_1" xmlns="http://www.w3.org/2000/svg" xmlns:xlink="http://www.w3.org/1999/xlink" x="0px" y="0px"
	 width="1200px" height="1200px" viewBox="0 0 1200 1200" enable-background="new 0 0 1200 1200" xml:space="preserve">
<g>
	<g>
		<path fill="#FFFFFF" d="M815.903,804.812H400.279c-10.036,0-18.181-8.145-18.181-18.181s8.145-18.181,18.181-18.181h415.624
			c10.036,0,18.181,8.145,18.181,18.181S825.975,804.812,815.903,804.812z"/>
		<path fill="#FFFFFF" d="M301.373,903.754c-64.58,0-117.124-52.508-117.124-117.124s52.508-117.124,117.124-117.124
			s117.124,52.508,117.124,117.124S365.953,903.754,301.373,903.754z M301.373,705.87c-44.544,0-80.761,36.217-80.761,80.761
			s36.217,80.761,80.761,80.761s80.761-36.217,80.761-80.761S345.917,705.87,301.373,705.87z"/>
		<path fill="#FFFFFF" d="M914.845,903.754c-64.58,0-117.124-52.508-117.124-117.124s52.508-117.124,117.124-117.124
			s117.124,52.508,117.124,117.124S979.425,903.754,914.845,903.754z M914.845,705.87c-44.544,0-80.761,36.217-80.761,80.761
			s36.217,80.761,80.761,80.761c44.544,0,80.761-36.217,80.761-80.761S959.389,705.87,914.845,705.87z"/>
	</g>
	<g id="XMLID_1_">
		<g>
			<path fill="#FFFFFF" d="M1183.06,563.66c13.7,17.89,19.38,40.07,15.92,62.39l-17.16,109.71c-6.22,39.96-40.18,69.05-80.73,69.05
				h-87.41c-10.04,0-18.18-8.14-18.18-18.18s8.14-18.18,18.18-18.18h87.41c22.51,0,41.35-16.15,44.8-38.4l17.17-109.71
				c1.92-12.39-1.2-24.69-8.84-34.65c-7.6-9.89-18.69-16.11-31.09-17.45L859.1,539.62c-3.6-0.4-6.98-1.85-9.74-4.15L629.11,350.35
				c-13.6-11.41-30.91-17.71-48.65-17.71H217.74c-16.62,0-32.11,8.19-41.53,21.89L44.29,546.86c-6.58,9.6-9.2,21.16-7.38,32.65
				L60.4,730.09c3.49,22.21,22.32,38.4,44.83,38.4h97.02c10.03,0,18.18,8.14,18.18,18.18c0,10.03-8.15,18.18-18.18,18.18h-96.98
				c-40.54,0-74.54-29.09-80.8-69.13L0.98,585.15c-3.23-20.66,1.49-41.6,13.35-58.87l131.92-192.33
				c16.15-23.56,42.91-37.63,71.49-37.63h362.75c26.33,0,51.89,9.31,72,26.25l215.99,181.56l258.5,28.04
				C1149.42,534.57,1169.31,545.77,1183.06,563.66z"/>
			<path fill="#FFFFFF" d="M816.08,768.45c10.04,0,18.19,8.14,18.19,18.18s-8.15,18.18-18.22,18.18h-415.7
				c-10.03,0-18.18-8.14-18.18-18.18s8.15-18.18,18.18-18.18H816.08z"/>
		</g>
		<g>
		</g>
	</g>
	<path fill="#FFFFFF" d="M700.561,553.765H174.467c-10.036,0-18.181-8.145-18.181-18.181c0-10.036,8.145-18.181,18.181-18.181
		h526.093c10.036,0,18.181,8.145,18.181,18.181C718.742,545.62,710.597,553.765,700.561,553.765z"/>
</g>
</svg>
