<?xml version="1.0" encoding="utf-8"?>
<!-- Generator: Adobe Illustrator 17.0.0, SVG Export Plug-In . SVG Version: 6.00 Build 0)  -->
<!DOCTYPE svg PUBLIC "-//W3C//DTD SVG 1.1//EN" "http://www.w3.org/Graphics/SVG/1.1/DTD/svg11.dtd">
<svg version="1.1" id="Capa_1" xmlns="http://www.w3.org/2000/svg" xmlns:xlink="http://www.w3.org/1999/xlink" x="0px" y="0px"
	 width="1200px" height="1200px" viewBox="0 0 1200 1200" enable-background="new 0 0 1200 1200" xml:space="preserve">
<g>
	<g>
		<path fill="#FFFFFF" d="M225,649.999c-68.899,0-124.999,56.1-124.999,124.999S156.101,900,225,900s124.999-56.1,124.999-124.999
			S293.899,649.999,225,649.999z M225,850.001c-41.351,0-75-33.649-75-75c0-41.351,33.649-75,75-75s75,33.649,75,75
			C300,816.349,266.351,850.001,225,850.001z"/>
	</g>
</g>
<g>
	<g>
		<path fill="#FFFFFF" d="M975,649.999c-68.899,0-124.999,56.1-124.999,124.999S906.101,900,975,900s124.999-56.1,124.999-124.999
			S1043.899,649.999,975,649.999z M975,850.001c-41.351,0-75-33.649-75-75c0-41.351,33.649-75,75-75s75,33.649,75,75
			C1050,816.349,1016.351,850.001,975,850.001z"/>
	</g>
</g>
<g>
	<g>
		<path fill="#FFFFFF" d="M1050,499.999h-42.3c-15.45,0-30.6-5.299-42.701-15L768,327.398C745.901,309.75,718.151,300,689.899,300
			H328.5c-41.899,0-80.749,20.801-103.999,55.65l-42.551,63.9C169.2,438.6,147.9,450,124.999,450C56.1,450,0,506.1,0,574.999V675
			c0,68.899,56.1,124.999,124.999,124.999c13.8,0,25.001-11.201,25.001-25.001S138.799,750,124.999,750c-41.351,0-75-33.649-75-75
			V574.999c0-41.351,33.649-75,75-75c39.701,0,76.5-19.699,98.55-52.751l42.551-63.851c13.95-20.899,37.301-33.401,62.4-33.401
			h361.399c16.999,0,33.6,5.85,46.901,16.451l196.999,157.549c20.85,16.751,47.149,25.999,73.95,25.999H1050
			c73.35,0,100.001,74.749,100.001,124.999c0,49.249-37.699,75-75,75c-13.8,0-25.001,11.201-25.001,25.001
			s11.201,25.001,25.001,25.001C1146.251,799.999,1200,746.25,1200,675C1200,590.149,1147.451,499.999,1050,499.999z"/>
	</g>
</g>
<g>
	<g>
		<path fill="#FFFFFF" d="M874.999,750H325.001c-13.8,0-25.001,11.201-25.001,25.001c0,13.8,11.201,25.001,25.001,25.001h550.001
			c13.8,0,25.001-11.201,25.001-25.001C900.002,761.201,888.799,750,874.999,750z"/>
	</g>
</g>
<g>
	<g>
		<path fill="#FFFFFF" d="M825,499.999H600v-75c0-13.8-11.201-25.001-25.001-25.001c-13.8,0-25.001,11.201-25.001,25.001V525
			c0,13.8,11.201,25.001,25.001,25.001H825c13.8,0,25.001-11.201,25.001-25.001C850.001,511.2,838.8,499.999,825,499.999z"/>
	</g>
</g>
<g>
	<g>
		<path fill="#FFFFFF" d="M475.001,499.999H315.45L347.4,436.2c6.15-12.349,1.151-27.349-11.201-33.551
			c-12.401-6.15-27.349-1.2-33.551,11.201l-49.999,100.001c-3.9,7.699-3.45,16.95,1.099,24.3c4.549,7.35,12.6,11.85,21.251,11.85
			h199.999c13.8,0,25.001-11.201,25.001-25.001S488.801,499.999,475.001,499.999z"/>
	</g>
</g>
<g>
	<g>
		<path fill="#FFFFFF" d="M675,600h-49.999c-13.8,0-25.001,11.201-25.001,25.001c0,13.8,11.201,25.001,25.001,25.001H675
			c13.8,0,25.001-11.201,25.001-25.001C700.001,611.201,688.8,600,675,600z"/>
	</g>
</g>
</svg>
